Coordinates
version=1
nRows=16
nColumns=36
inDegrees=yes

Units are S.I. units (second, meters, Newtons, ...)
If the header above contains a line with 'inDegrees', this indicates whether rotational values are in degrees (yes) or radians (no).

endheader
time	pelvis_tilt	pelvis_list	pelvis_rotation	pelvis_tx	pelvis_ty	pelvis_tz	hip_flexion_r	hip_adduction_r	hip_rotation_r	knee_angle_r	knee_angle_r_beta	ankle_angle_r	subtalar_angle_r	mtp_angle_r	hip_flexion_l	hip_adduction_l	hip_rotation_l	knee_angle_l	knee_angle_l_beta	ankle_angle_l	subtalar_angle_l	mtp_angle_l	lumbar_extension	lumbar_bending	lumbar_rotation	arm_flex_r	arm_add_r	arm_rot_r	elbow_flex_r	pro_sup_r	arm_flex_l	arm_add_l	arm_rot_l	elbow_flex_l	pro_sup_l
      0.00000000	    -15.87709879	      3.42850028	     -2.82153401	     -0.17744650	      0.94658599	      0.10714614	     23.21445208	     -1.78901396	     -9.01719046	      3.20324272	      0.05590713	     -0.82963680	     -3.86697593	     -7.25141670	     23.00336646	     -0.79891532	     -6.48787362	      4.33466513	      0.07565418	     -1.59679541	     -0.84866785	     -7.25141670	    -10.91484412	     -0.23085551	     -0.50248069	     28.20574758	     16.77126354	     57.12567227	    125.78918343	    110.28708028	     41.54606962	     10.73177238	     59.45158161	    125.10432609	    102.51823193
      0.01666670	    -17.39120139	      3.84613338	     -2.22842220	     -0.17872905	      0.94890416	      0.10704393	     25.03529843	     -2.02100460	     -8.10436647	      3.41602998	      0.05962097	      1.74228684	     -2.07498892	     -7.25746949	     24.05240519	      0.04301823	     -6.79269805	      3.34354482	      0.05835587	     -0.85835958	      0.64783437	     -7.25746949	     -9.35884206	     -0.91886164	     -0.68762008	     29.23992454	     16.84428624	     57.62376872	    127.37933653	    109.57685156	     43.82619193	     12.07757437	     62.31451974	    123.94129785	    102.70415840
      0.03333330	    -17.97168486	      4.16300078	     -2.54801733	     -0.17813834	      0.94926578	      0.10855442	     25.26503498	     -1.85220875	     -8.16912051	      2.71811882	      0.04744012	      2.14746078	     -1.84932376	     -7.29568643	     24.56405206	      0.13378516	     -7.13786010	      2.77242073	      0.04838787	     -0.55030685	      1.04202508	     -7.29568643	     -8.71396444	     -1.47974207	     -0.28000049	     28.86303189	     16.87019203	     59.19985960	    127.40365148	    107.23603797	     44.36567682	     12.38159522	     63.98078203	    123.55531273	    100.39383966
      0.05000000	    -17.79724941	      4.03097335	     -2.46478228	     -0.17820481	      0.95071140	      0.10862654	     24.72564153	     -1.66456866	     -8.19475722	      2.08740388	      0.03643207	      2.01029320	     -1.40517769	     -7.39809475	     24.28462121	      0.05217812	     -7.37665924	      2.14670266	      0.03746703	     -0.51930356	      1.41894369	     -7.39809475	     -8.84328292	     -1.44771352	     -0.24124128	     28.75631922	     16.62754888	     59.74859220	    127.00055039	    105.05613509	     45.41558380	     12.52020512	     65.11663235	    122.63439497	     96.10908715
      0.06666670	    -17.82021377	      3.98409731	     -2.28273012	     -0.17809219	      0.95074626	      0.10910579	     24.41331877	     -1.61314631	     -7.83672558	      1.64688353	      0.02874354	      1.65591587	     -1.63619496	     -7.44973872	     24.23474625	      0.12043726	     -7.32549458	      1.89176289	      0.03301749	     -0.80410488	      1.32314339	     -7.44973872	     -8.64290594	     -1.21148119	     -0.04792477	     28.19023133	     16.65190604	     60.22381051	    126.46629720	    104.57799912	     45.82579644	     12.76864799	     65.97108800	    121.98783299	     92.84319312
      0.08333330	    -17.64867102	      3.90315253	     -2.16274439	     -0.17476134	      0.95033150	      0.10911653	     23.88779698	     -1.56790324	     -7.63936925	      1.39154679	      0.02428707	      1.37713543	     -1.78459345	     -7.47920661	     23.97631877	      0.09598565	     -7.22092361	      1.78488470	      0.03115211	     -0.75083970	      1.30638406	     -7.47920661	     -8.46323251	     -0.90993089	      0.12728913	     27.54929416	     16.66157439	     60.47650343	    126.21765310	    103.90627171	     45.83983147	     13.21357064	     66.66147535	    121.49145970	     90.07108217
      0.10000000	    -17.66402272	      3.84394355	     -2.05778936	     -0.17366858	      0.95155634	      0.10862765	     23.64332427	     -1.56037754	     -7.74012109	      1.23213981	      0.02150490	      1.01776846	     -1.89436010	     -7.49248475	     23.85890658	      0.13411412	     -6.92045881	      1.76873990	      0.03087033	     -0.88321497	      1.11844586	     -7.49248475	     -8.13660581	     -0.57042346	      0.33373493	     26.99513985	     16.58659963	     60.62201718	    126.03825325	    102.93278367	     45.66319699	     13.60741404	     67.10801197	    121.19464437	     87.59207774
      0.11666670	    -17.64417390	      3.83482843	     -2.16137638	     -0.17373286	      0.95153717	      0.10949696	     23.50380532	     -1.45457387	     -7.57951617	      1.08140233	      0.01887403	      0.70767423	     -2.23894262	     -7.49789925	     23.79148961	      0.09509732	     -6.83510239	      1.83853070	      0.03208841	     -0.32940333	      1.59548982	     -7.49789925	     -7.89006828	     -0.34097262	      0.52212513	     26.82206394	     16.64491735	     60.36540577	    125.70662581	    101.83731814	     45.54065312	     13.70885436	     67.51495191	    121.10270923	     85.47852887
      0.13333330	    -17.68529086	      3.80688469	     -2.20256216	     -0.17317786	      0.95223534	      0.10959403	     23.46040201	     -1.37659514	     -7.45740157	      1.03126643	      0.01799899	      0.31992969	     -2.47094839	     -7.49938564	     23.73390738	      0.05628364	     -6.69077076	      1.80958343	      0.03158319	     -0.30736390	      1.82827542	     -7.49938564	     -7.65851905	     -0.06229622	      0.47641931	     26.78237002	     16.69698813	     60.29136052	    125.54755013	    100.70250087	     45.41698319	     13.65372191	     67.75519671	    121.10970979	     84.14224597
      0.15000000	    -17.64751719	      3.80989571	     -2.28792865	     -0.17258652	      0.95356392	      0.11043180	     23.40724075	     -1.29003409	     -7.42865591	      0.92481368	      0.01614104	      0.35198486	     -2.25393082	     -7.49987837	     23.63079658	      0.02455293	     -6.37199319	      1.84435489	      0.03219007	     -0.23901118	      1.64857932	     -7.49987837	     -7.58493622	      0.18303667	      0.29285771	     27.02556437	     16.81996546	     60.22915622	    125.29209168	    100.25634399	     45.38650166	     13.38136839	     67.71398795	    121.11470684	     83.37859368
      0.16666670	    -17.56811299	      3.81188900	     -2.40050921	     -0.17089408	      0.95466801	      0.11048668	     23.27359442	     -1.19480864	     -7.52509841	      0.83593989	      0.01458990	      0.20742190	     -2.21547963	     -7.49997270	     23.46521096	     -0.01425165	     -6.36698200	      1.81888242	      0.03174549	     -0.13290980	      1.94295805	     -7.49997270	     -7.57556971	      0.40411124	      0.08266921	     27.16981647	     16.95118602	     60.19148176	    125.10140480	    100.15709300	     45.12598803	     13.06731601	     67.61943532	    121.08719432	     82.30409015
      0.18333330	    -17.44036966	      3.82195576	     -2.54366491	     -0.16960018	      0.95353800	      0.11088560	     23.08391133	     -1.11523224	     -7.53027773	      0.74701171	      0.01303781	      0.15177520	     -2.10695350	     -7.49999143	     23.21250742	     -0.06045564	     -6.48265466	      1.77753160	      0.03102378	     -0.07819124	      2.17081034	     -7.49999143	     -7.53893975	      0.59712013	     -0.15290644	     27.33074624	     17.05953618	     60.20677236	    125.07558917	     99.94903098	     44.86102440	     12.72901058	     67.28383984	    121.05870794	     81.99030085
      0.20000000	    -17.37810137	      3.85822148	     -2.67624637	     -0.16963635	      0.95200399	      0.11132291	     22.98139781	     -1.07045384	     -7.45506976	      0.66483609	      0.01160358	      0.07559988	     -2.11653135	     -7.49999760	     23.05136018	     -0.07024582	     -6.54735778	      1.73366748	      0.03025821	     -0.10860505	      2.19734420	     -7.49999760	     -7.40184729	      0.76236289	     -0.35664184	     27.45595008	     17.18541270	     60.13538955	    125.18553952	    100.27909450	     44.56127881	     12.50860103	     66.88572134	    121.18778547	     81.31454899
      0.21666670	    -17.31136841	      3.87247231	     -2.79282038	     -0.16850404	      0.95360450	      0.11176733	     22.84222526	     -1.04632145	     -8.09646409	      0.61391170	      0.01071478	      0.24567147	     -1.23139839	     -7.49999944	     22.87825792	     -0.09826570	     -6.84917776	      1.65823310	      0.02894163	     -0.05144900	      2.68121594	     -7.49999944	     -7.30565499	      0.90935252	     -0.46828867	     27.60007220	     17.23380014	     60.12660872	    125.24158849	     99.73406573	     44.28011047	     12.40444144	     66.61991329	    121.12272439	     80.08966312
      0.23333330	    -17.21749126	      3.89288229	     -2.80048315	     -0.16848724	      0.95217386	      0.11222661	     22.70024022	     -1.05034473	     -7.73173308	      0.55724936	      0.00972584	     -0.05389632	     -1.85904473	     -7.49999985	     22.67794725	     -0.08550247	     -6.97316608	      1.62888790	      0.02842946	     -0.21378876	      2.58697816	     -7.49999985	     -7.21054801	      1.08029528	     -0.70593855	     27.84604556	     17.37814900	     59.80811899	    124.85586843	    100.34962241	     44.21080810	     12.28464576	     66.48600753	    121.28456255	     80.35309918
      0.25000000	    -17.15791861	      3.90303804	     -2.69583043	     -0.16771882	      0.95203244	      0.11262847	     22.56318098	     -1.10274261	     -7.87180280	      0.51893631	      0.00905715	      0.01955173	     -1.59598331	     -7.49999986	     22.51572588	     -0.01788793	     -6.67956983	      1.53297732	      0.02675550	     -0.47820311	      2.27439743	     -7.49999986	     -7.04800203	      1.19017070	     -0.65264394	     27.91551585	     17.26790879	     59.19725697	    124.76569898	     99.86671110	     44.26813213	     12.43182904	     66.67692032	    121.20257372	     80.32939524
